<svg width="32" height="32" viewBox="0 0 32 32" fill="none" xmlns="http://www.w3.org/2000/svg">
<g clip-path="url(#clip0_799_2959)">
<path d="M16 32C24.8366 32 32 24.8366 32 16C32 7.16344 24.8366 0 16 0C7.16344 0 0 7.16344 0 16C0 24.8366 7.16344 32 16 32Z" fill="white"/>
<path d="M16 26C21.5228 26 26 21.5228 26 16C26 10.4772 21.5228 6 16 6C10.4772 6 6 10.4772 6 16C6 21.5228 10.4772 26 16 26Z" fill="#34AADF"/>
<path d="M10.1618 15.9127C10.1618 15.9127 15.1618 13.8607 16.8958 13.1382C17.5606 12.8492 19.8149 11.9243 19.8149 11.9243C19.8149 11.9243 20.8554 11.5197 20.7686 12.5023C20.7397 12.907 20.5085 14.3231 20.2773 15.8549C19.9305 18.0226 19.5548 20.3925 19.5548 20.3925C19.5548 20.3925 19.497 21.0573 19.0057 21.1729C18.5144 21.2885 17.7051 20.7683 17.5606 20.6526C17.445 20.566 15.393 19.2654 14.6416 18.6295C14.4392 18.4561 14.208 18.1093 14.6704 17.7047C15.7109 16.7509 16.9536 15.5659 17.7051 14.8145C18.0519 14.4676 18.3987 13.6584 16.9536 14.641C14.9017 16.0573 12.8786 17.3867 12.8786 17.3867C12.8786 17.3867 12.4161 17.6757 11.5491 17.4156C10.682 17.1555 9.6705 16.8087 9.6705 16.8087C9.6705 16.8087 8.9769 16.3752 10.1618 15.9127Z" fill="white"/>
</g>
<defs>
<clipPath id="clip0_799_2959">
<rect width="32" height="32" fill="white"/>
</clipPath>
</defs>
</svg>
